<?xml version="1.0" standalone="no"?>
<!DOCTYPE svg PUBLIC "-//W3C//DTD SVG 20010904//EN"
 "http://www.w3.org/TR/2001/REC-SVG-20010904/DTD/svg10.dtd">
<svg version="1.0" xmlns="http://www.w3.org/2000/svg"
 width="1024.000000pt" height="1024.000000pt" viewBox="0 0 1024.000000 1024.000000"
 preserveAspectRatio="xMidYMid meet">
<metadata>
Created by potrace 1.14, written by Peter Selinger 2001-2017
</metadata>
<g transform="translate(0.000000,1024.000000) scale(0.100000,-0.100000)"
fill="#000000" stroke="none">
<path d="M5600 8350 c-177 -16 -282 -32 -337 -51 -31 -10 -64 -19 -73 -19 -9
0 -40 -7 -68 -15 -44 -13 -52 -19 -52 -40 0 -18 -9 -29 -32 -41 -18 -9 -58
-40 -88 -68 -30 -29 -80 -69 -110 -88 -69 -46 -113 -90 -215 -218 -32 -41 -71
-88 -86 -105 -32 -36 -43 -107 -28 -175 5 -25 12 -72 15 -105 4 -33 10 -64 14
-70 4 -5 6 -30 4 -55 -1 -24 1 -49 5 -55 4 -5 7 -67 7 -136 -1 -119 0 -126 18
-121 18 5 19 4 3 -18 -13 -19 -14 -27 -4 -44 6 -12 12 -34 12 -51 1 -16 6 -40
13 -53 7 -12 9 -22 5 -21 -20 3 -27 -2 -14 -10 12 -8 12 -12 2 -24 -9 -11 -9
-17 0 -22 8 -6 7 -10 -2 -16 -12 -8 -12 -11 1 -18 12 -9 12 -11 -3 -17 -19 -7
-23 -30 -5 -36 8 -3 7 -13 -5 -36 -8 -18 -11 -30 -6 -27 5 4 9 1 9 -6 0 -6 8
-18 18 -25 16 -13 16 -13 0 -14 -21 0 -22 -4 -7 -33 9 -18 9 -20 -2 -9 -19 17
-32 15 -25 -5 4 -9 1 -20 -6 -25 -9 -7 -4 -8 15 -5 15 2 27 0 27 -4 0 -5 -10
-9 -22 -10 -13 0 -17 -3 -10 -6 6 -2 12 -11 12 -19 0 -8 3 -14 8 -14 4 0 6
-15 5 -32 -1 -18 -2 -33 -3 -33 -1 0 -3 -15 -5 -33 -2 -20 3 -35 12 -40 16
-10 8 -62 -10 -62 -7 0 -7 -4 1 -12 17 -17 15 -31 -4 -24 -14 5 -15 4 -4 -9
10 -12 9 -15 -6 -15 -13 0 -8 -6 15 -17 19 -9 28 -19 21 -21 -7 -3 -16 2 -21
9 -12 20 -11 2 1 -22 7 -13 7 -19 0 -19 -15 0 -12 -21 8 -43 12 -15 13 -18 2
-12 -13 7 -13 6 -2 -7 9 -11 10 -18 2 -23 -7 -4 -5 -11 5 -21 8 -9 12 -21 8
-27 -5 -8 -8 -8 -11 1 -5 17 -19 15 -19 -3 0 -15 8 -18 37 -16 10 0 11 -1 3
-5 -18 -8 -16 -24 2 -24 8 0 15 -5 15 -11 0 -5 -4 -7 -10 -4 -5 3 -18 1 -27
-4 -11 -6 -13 -11 -5 -11 10 0 10 -5 2 -20 -9 -16 -8 -20 6 -20 12 0 15 -6 12
-25 -3 -14 -1 -28 4 -31 4 -3 6 -10 2 -15 -3 -6 -12 -5 -22 3 -14 11 -14 11
-5 -7 6 -11 21 -20 34 -20 12 0 24 -6 26 -13 3 -7 -1 -10 -10 -7 -7 3 -20 -2
-28 -11 -11 -14 -11 -18 6 -30 10 -8 15 -17 12 -21 -4 -3 0 -14 9 -24 10 -11
14 -27 11 -39 -6 -22 21 -80 37 -80 6 0 1 -7 -10 -15 -16 -12 -16 -14 -3 -15
9 0 19 -9 22 -20 4 -16 2 -20 -12 -15 -12 3 -18 0 -18 -10 0 -8 9 -15 21 -15
21 -1 21 -1 2 -15 -11 -8 -15 -15 -9 -15 13 0 26 -30 18 -39 -3 -3 -9 0 -13 6
-5 8 -13 9 -22 3 -13 -8 -12 -10 3 -10 19 0 20 -3 19 -77 -1 -48 1 -53 21 -54
12 0 16 -3 10 -6 -18 -7 -16 -24 4 -38 15 -12 14 -12 -10 -8 -23 5 -26 3 -20
-12 5 -14 3 -16 -8 -10 -8 5 -11 5 -6 -1 5 -5 13 -10 18 -10 5 -1 12 -2 15 -3
4 0 -1 -11 -9 -24 -13 -20 -13 -24 -1 -24 8 0 14 7 14 16 0 14 2 14 10 1 5 -9
5 -19 -1 -26 -7 -8 -6 -14 1 -19 8 -5 6 -13 -6 -26 -9 -10 -13 -19 -8 -19 5 0
0 -7 -10 -15 -11 -8 -14 -15 -7 -15 7 0 9 -5 6 -10 -4 -6 -10 -8 -14 -6 -4 3
-8 -5 -8 -17 -2 -20 -1 -20 8 -4 18 31 29 18 25 -30 -2 -27 1 -54 6 -60 7 -9
7 -13 -2 -13 -10 0 -10 -3 0 -15 10 -12 9 -20 -4 -40 -15 -23 -15 -25 1 -26
14 0 13 -2 -5 -9 -12 -5 -25 -16 -27 -25 -3 -8 -7 -22 -10 -30 -7 -22 -2 -30
15 -27 10 2 9 -2 -5 -13 -16 -13 -18 -19 -7 -35 15 -24 15 -33 1 -24 -6 3 -15
0 -20 -7 -11 -17 -12 -79 -1 -80 23 -2 45 -8 50 -14 4 -4 0 -6 -8 -5 -38 6
-45 -1 -21 -21 34 -28 19 -36 -18 -9 -32 22 -44 17 -13 -6 15 -12 15 -15 2
-24 -12 -7 -13 -13 -3 -29 10 -16 9 -20 -5 -23 -13 -4 -17 -14 -16 -42 2 -28
-2 -36 -13 -34 -10 2 -17 -6 -20 -22 -2 -13 -9 -29 -15 -35 -8 -7 -9 -5 -5 8
4 11 3 16 -3 12 -6 -3 -10 -15 -10 -25 0 -10 -8 -23 -17 -29 -14 -7 -15 -12
-4 -25 14 -17 7 -34 -21 -54 -10 -7 -18 -19 -18 -26 0 -8 -7 -17 -16 -20 -8
-3 -12 -11 -8 -17 4 -7 3 -9 -3 -6 -14 9 -38 -21 -38 -47 0 -12 -6 -21 -13
-21 -7 0 -17 -7 -22 -15 -12 -19 -13 -33 -1 -26 5 4 7 -3 4 -15 -3 -11 -14
-24 -24 -28 -21 -7 -61 -79 -53 -92 3 -5 0 -9 -6 -9 -6 0 -8 -5 -4 -12 4 -6 3
-8 -4 -5 -19 12 -40 -3 -34 -25 3 -12 1 -19 -4 -15 -6 3 -16 1 -24 -4 -13 -8
-13 -10 0 -20 12 -8 11 -9 -6 -4 -18 4 -24 0 -32 -25 -6 -16 -8 -30 -5 -30 4
0 -5 -12 -19 -27 -14 -16 -28 -36 -31 -46 -4 -10 -11 -15 -17 -12 -5 3 -10 -3
-10 -14 0 -14 -5 -19 -15 -15 -10 4 -13 0 -10 -15 2 -12 0 -19 -5 -16 -5 3
-11 -3 -14 -13 -3 -10 -19 -26 -36 -35 -16 -10 -30 -22 -30 -26 0 -5 -10 -11
-22 -15 -16 -4 -19 -9 -11 -14 8 -5 9 -12 2 -22 -8 -13 -10 -13 -19 0 -9 14
-14 7 -11 -13 1 -4 -6 -10 -15 -14 -9 -3 -12 -8 -5 -12 5 -4 -7 -25 -30 -50
-21 -25 -40 -48 -40 -53 -1 -4 -2 -12 -3 -18 0 -5 -9 -18 -18 -30 -10 -11 -15
-27 -11 -36 4 -11 -1 -22 -12 -30 -10 -8 -16 -17 -12 -20 4 -4 2 -12 -3 -19
-5 -6 -12 -22 -14 -36 -3 -13 -5 -26 -6 -29 -1 -3 -1 -21 0 -41 1 -21 -3 -40
-9 -44 -14 -8 -50 -78 -55 -107 -3 -13 -5 -23 -6 -23 -3 0 -9 -37 -16 -93 -14
-111 39 -193 151 -234 98 -36 226 -25 363 31 l53 21 35 -35 c19 -19 43 -35 53
-35 56 0 197 61 354 154 43 25 81 46 86 46 29 0 222 167 214 186 -3 9 2 14 16
14 12 0 20 4 18 8 -3 12 70 73 85 70 7 -2 12 2 11 8 -3 15 55 16 89 3 29 -12
72 -89 83 -149 4 -19 13 -63 22 -98 28 -115 -13 -285 -79 -335 -25 -19 -131
-49 -170 -48 -10 0 -32 6 -50 14 -48 22 -72 25 -84 13 -11 -12 -149 -12 -232
0 -51 7 -100 -12 -152 -61 -48 -45 -92 -53 -122 -23 -19 19 -36 24 -98 26 -73
4 -76 3 -103 -27 -15 -17 -31 -31 -36 -31 -21 0 -87 -197 -95 -285 -18 -195
-22 -169 77 -525 53 -190 89 -303 243 -770 75 -228 84 -276 65 -350 -5 -19
-12 -47 -15 -62 -4 -19 -19 -34 -46 -48 -35 -18 -47 -19 -103 -10 -34 5 -65
10 -69 10 -4 0 -12 9 -18 20 -9 16 -4 39 25 113 29 72 35 95 26 109 -6 10 -11
44 -11 76 0 77 -21 134 -75 206 -51 68 -63 77 -93 69 -30 -7 -28 -16 18 -76
61 -82 84 -140 76 -201 -3 -28 -15 -77 -26 -108 -11 -32 -24 -88 -30 -125 -7
-50 -15 -73 -31 -86 -22 -18 -49 -23 -49 -9 0 12 -120 63 -132 56 -5 -3 -15
-1 -22 5 -19 16 -46 3 -46 -21 0 -50 -36 -71 -81 -48 -20 11 -28 -3 -9 -15 18
-11 -1 -27 -25 -21 -18 5 -24 1 -29 -19 -4 -14 -11 -25 -16 -25 -6 0 -10 -7
-10 -15 0 -8 5 -15 12 -15 9 0 9 -3 1 -11 -9 -9 -23 -9 -54 -1 -26 7 -48 7
-54 2 -7 -6 -47 -5 -100 0 -49 5 -91 7 -94 4 -10 -10 -11 -54 -1 -54 5 0 10
-7 10 -15 0 -13 69 -15 559 -15 363 0 562 4 566 10 3 6 11 10 16 10 6 0 7 -5
4 -10 -4 -7 357 -10 1075 -10 l1081 0 -7 37 c-28 164 -106 415 -140 454 -8 8
-14 24 -14 34 0 10 -9 38 -21 62 -30 63 -21 83 64 143 93 66 106 69 170 36 62
-31 66 -31 112 -9 99 47 7 158 -104 125 -51 -16 -76 -15 -90 2 -24 28 12 79
107 156 121 96 141 142 108 242 -8 24 -24 81 -36 128 -38 152 -94 215 -169
191 -20 -6 -49 -23 -66 -38 l-30 -26 -2 -151 c-1 -185 -7 -233 -38 -309 -38
-92 -117 -207 -144 -207 -5 0 -12 13 -16 29 -3 16 -21 53 -38 83 -18 29 -45
84 -61 121 -16 38 -39 83 -51 101 -12 18 -33 57 -47 87 -13 30 -75 132 -136
227 -107 165 -124 203 -102 217 23 14 62 99 71 152 17 99 9 145 -27 162 -14 6
-27 18 -30 26 -4 8 -15 15 -25 15 -11 0 -27 9 -36 20 -10 11 -21 20 -25 20 -6
0 -100 61 -147 95 -7 6 -45 42 -83 80 -81 81 -110 131 -102 172 3 17 -2 46
-15 76 -12 27 -21 64 -21 82 0 18 -17 82 -39 142 -42 119 -65 241 -60 318 4
44 7 50 28 53 13 2 27 -1 30 -7 4 -6 33 -13 65 -15 36 -2 64 -10 77 -22 20
-18 29 -14 41 18 2 4 21 8 43 9 22 1 46 7 53 12 17 13 84 17 98 6 8 -6 14 -4
18 6 3 8 13 15 23 15 10 0 29 12 42 25 23 25 61 34 61 15 0 -15 32 1 57 29 15
18 23 21 23 11 0 -13 1 -13 10 0 6 9 13 11 18 5 15 -20 43 -13 58 16 19 37 28
37 21 1 -4 -21 -1 -31 13 -40 22 -14 27 -9 68 74 31 61 59 85 73 63 5 -9 12
-8 24 4 21 22 24 21 46 -5 l19 -21 11 31 c6 18 15 30 19 27 5 -3 14 4 20 15 6
11 17 20 24 20 16 0 92 115 102 154 3 14 10 26 15 26 5 0 42 33 82 72 39 40
78 73 85 73 8 0 24 26 37 57 14 35 42 76 70 104 28 27 53 64 62 90 8 24 19 46
24 50 5 3 9 16 9 28 0 15 7 26 18 28 10 3 32 32 49 64 32 61 33 64 33 89 0 8
6 15 14 15 22 0 56 54 56 88 0 17 5 34 10 37 6 3 10 19 10 35 0 16 5 32 10 35
6 4 8 10 5 15 -3 5 -1 11 5 15 5 3 10 13 10 22 0 8 9 28 21 44 13 18 18 36 14
49 -4 13 -1 22 9 26 9 3 18 24 22 50 3 24 10 47 15 50 5 3 7 10 4 15 -4 5 1
36 11 68 14 50 14 70 5 123 -6 35 -7 77 -3 93 4 17 7 54 7 82 0 29 3 53 7 53
4 0 5 27 3 60 -3 48 -1 60 10 60 11 0 15 12 15 39 0 25 5 41 15 45 20 7 19 55
-1 77 -14 16 -14 20 1 43 18 27 16 76 -5 131 -6 17 -13 66 -16 109 -3 51 -10
86 -19 96 -8 9 -15 26 -15 37 0 28 -27 103 -44 123 -8 8 -21 60 -31 115 -9 55
-28 143 -40 195 -13 52 -23 116 -23 141 1 46 -30 115 -87 194 -11 17 -47 77
-79 135 -32 58 -68 118 -79 134 -20 29 -38 83 -40 121 0 11 -23 41 -49 67 -26
27 -48 57 -48 68 0 11 -6 20 -14 20 -20 0 -30 18 -18 33 21 24 -23 91 -96 146
-18 13 -32 28 -32 34 0 5 -10 17 -23 27 -42 33 -27 140 34 257 33 62 35 86 15
163 -35 134 -174 273 -388 388 -75 40 -223 85 -318 96 -84 10 -285 13 -370 6z
m-915 -2730 c3 -5 1 -10 -4 -10 -6 0 -11 5 -11 10 0 6 2 10 4 10 3 0 8 -4 11
-10z m-5 -34 c0 -3 -4 -8 -10 -11 -5 -3 -10 -1 -10 4 0 6 5 11 10 11 6 0 10
-2 10 -4z m-313 -1698 c-3 -8 -6 -5 -6 6 -1 11 2 17 5 13 3 -3 4 -12 1 -19z
m-7 -44 c0 -8 -5 -12 -10 -9 -6 4 -8 11 -5 16 9 14 15 11 15 -7z m1420 -1816
c0 -12 -28 -9 -35 2 -4 6 -4 18 -1 27 6 14 8 14 21 -3 8 -10 15 -22 15 -26z
m76 -6 c19 -12 22 -36 7 -64 -7 -16 -16 -28 -19 -28 -3 0 -16 12 -29 28 -24
27 -31 52 -18 65 9 9 45 9 59 -1z m129 -163 c-4 -5 -1 -9 6 -9 18 0 2 -60 -23
-87 -12 -13 -24 -23 -27 -23 -19 1 -66 109 -48 110 1 0 20 7 42 14 40 14 60
12 50 -5z m787 -342 c9 -12 26 -55 37 -97 12 -41 28 -98 36 -126 20 -69 19
-95 -7 -145 -29 -53 -187 -173 -205 -155 -3 3 5 38 18 78 21 65 24 92 25 250
0 149 3 180 18 203 20 30 50 27 78 -8z m-162 -614 c7 -16 14 -43 15 -61 3 -31
0 -34 -68 -68 -67 -34 -71 -35 -84 -18 -16 21 -7 54 18 72 25 18 89 85 89 95
0 17 18 5 30 -20z m-2180 -757 c0 -2 -7 -6 -15 -10 -8 -3 -15 -1 -15 4 0 6 7
10 15 10 8 0 15 -2 15 -4z m18 -35 c-4 -20 -55 -19 -148 3 l-65 15 108 -1 c92
-1 107 -4 105 -17z"/>
<path d="M4565 6380 c3 -5 8 -10 11 -10 2 0 4 5 4 10 0 6 -5 10 -11 10 -5 0
-7 -4 -4 -10z"/>
<path d="M4626 5614 c-9 -24 -7 -27 9 -10 17 17 19 26 6 26 -5 0 -12 -7 -15
-16z"/>
<path d="M4669 4833 c-13 -16 -12 -17 3 -5 14 11 18 10 26 -5 6 -10 13 -15 16
-12 4 3 -2 13 -13 23 -17 15 -19 15 -32 -1z"/>
<path d="M4175 3680 c-3 -5 1 -10 10 -10 9 0 13 5 10 10 -3 6 -8 10 -10 10 -2
0 -7 -4 -10 -10z"/>
</g>
</svg>
